<?xml version="1.0" standalone="no"?><!DOCTYPE svg PUBLIC "-//W3C//DTD SVG 1.1//EN" "http://www.w3.org/Graphics/SVG/1.1/DTD/svg11.dtd"><svg t="1565589551813" class="icon" viewBox="0 0 1025 1024" version="1.1" xmlns="http://www.w3.org/2000/svg" p-id="9460" xmlns:xlink="http://www.w3.org/1999/xlink" width="200.1953125" height="200"><defs><style type="text/css"></style></defs><path d="M1010.632151 938.288159L582.072948 511.967698 1010.632151 85.647237a50.979356 50.979356 0 0 0 0-71.000107 49.604129 49.604129 0 0 0-70.360466 0L511.712482 440.967591 86.351481 14.64713a49.604129 49.604129 0 0 0-70.360466 0 50.979356 50.979356 0 0 0 0 71.000107l425.361 426.320461L15.991015 938.288159a50.979356 50.979356 0 0 0 0 71.000107 49.604129 49.604129 0 0 0 70.360466 0L511.712482 582.967805l428.559203 426.320461a49.604129 49.604129 0 0 0 70.360466 0 50.979356 50.979356 0 0 0 0-71.000107z" p-id="9461"></path></svg>